<svg viewBox="0 0 256 256" fill="none" xmlns="http://www.w3.org/2000/svg">
  <symbol id="logo" viewBox="0 0 256 256">
    <path d="M61 133.162H72.9381V182.884H78.7947V133.162H177.975V182.884H183.805V133.162H194.209V122.691H61V133.162Z" fill="currentColor"/>
    <path d="M83.4221 120.351H166.328H167.835C173.506 120.351 178.675 120.351 184.109 120.351C184.109 115.42 180.103 111.44 175.198 111.44C172.118 111.44 169.487 113.119 167.901 115.539L173.943 74H77.5654L83.475 111.89H83.3824V120.351H83.4221ZM129.033 95.0734C132.073 95.0734 134.559 97.4399 134.559 100.309C134.559 103.217 132.073 105.557 129.033 105.557C125.966 105.557 123.493 103.204 123.493 100.309C123.493 97.4531 125.966 95.0734 129.033 95.0734Z" fill="currentColor"/>
  </symbol>
</svg>
