<svg xmlns="http://www.w3.org/2000/svg" fill="currentColor">
  <symbol id="info" viewBox="0 0 24 24">
    <path d="M0 0h24v24H0V0z" fill="none" />
    <path d="M12 2C6.48 2 2 6.48 2 12s4.48 10 10 10 10-4.48 10-10S17.52 2 12 2zm1 15h-2v-6h2v6zm0-8h-2V7h2v2z" />
  </symbol>
  <symbol id="github" viewBox="0 0 512 512">
    <path d="M173.9 397.4C173.9 399.4 171.6 401 168.7 401C165.4 401.3 163.1 399.7 163.1 397.4C163.1 395.4 165.4 393.8 168.3 393.8C171.3 393.5 173.9 395.1 173.9 397.4ZM142.8 392.9C142.1 394.9 144.1 397.2 147.1 397.8C149.7 398.8 152.7 397.8 153.3 395.8C153.9 393.8 152 391.5 149 390.6C146.4 389.9 143.5 390.9 142.8 392.9ZM187 391.2C184.1 391.9 182.1 393.8 182.4 396.1C182.7 398.1 185.3 399.4 188.3 398.7C191.2 398 193.2 396.1 192.9 394.1C192.6 392.2 189.9 390.9 187 391.2ZM252.8 8C114.1 8 8 113.3 8 252C8 362.9 77.8 457.8 177.5 491.2C190.3 493.5 194.8 485.6 194.8 479.1C194.8 472.9 194.5 438.7 194.5 417.7C194.5 417.7 124.5 432.7 109.8 387.9C109.8 387.9 98.4 358.8 82 351.3C82 351.3 59.1 335.6 83.6 335.9C83.6 335.9 108.5 337.9 122.2 361.7C144.1 400.3 180.8 389.2 195.1 382.6C197.4 366.6 203.9 355.5 211.1 348.9C155.2 342.7 98.8 334.6 98.8 238.4C98.8 210.9 106.4 197.1 122.4 179.5C119.8 173 111.3 146.2 125 111.6C145.9 105.1 194 138.6 194 138.6C214 133 235.5 130.1 256.8 130.1C278.1 130.1 299.6 133 319.6 138.6C319.6 138.6 367.7 105 388.6 111.6C402.3 146.3 393.8 173 391.2 179.5C407.2 197.2 417 211 417 238.4C417 334.9 358.1 342.6 302.2 348.9C311.4 356.8 319.2 371.8 319.2 395.3C319.2 429 318.9 470.7 318.9 478.9C318.9 485.4 323.5 493.3 336.2 491C436.2 457.8 504 362.9 504 252C504 113.3 391.5 8 252.8 8ZM105.2 352.9C103.9 353.9 104.2 356.2 105.9 358.1C107.5 359.7 109.8 360.4 111.1 359.1C112.4 358.1 112.1 355.8 110.4 353.9C108.8 352.3 106.5 351.6 105.2 352.9ZM94.4 344.8C93.7 346.1 94.7 347.7 96.7 348.7C98.3 349.7 100.3 349.4 101 348C101.7 346.7 100.7 345.1 98.7 344.1C96.7 343.5 95.1 343.8 94.4 344.8ZM126.8 380.4C125.2 381.7 125.8 384.7 128.1 386.6C130.4 388.9 133.3 389.2 134.6 387.6C135.9 386.3 135.3 383.3 133.3 381.4C131.1 379.1 128.1 378.8 126.8 380.4ZM115.4 365.7C113.8 366.7 113.8 369.3 115.4 371.6C117 373.9 119.7 374.9 121 373.9C122.6 372.6 122.6 370 121 367.7C119.6 365.4 117 364.4 115.4 365.7Z" />
  </symbol>
</svg>
